<?xml version="1.0" encoding="utf-8"?>
<svg xmlns="http://www.w3.org/2000/svg" viewBox="0 0 750 400">
    <title>Discover</title>
    <g>
        <path d="M 33.988 140.189 L 0 140.189 L 0 259.059 L 33.864 259.059 C 51.823 259.059 64.811 254.767 76.242 245.303 C 89.801 234.106 97.797 217.201 97.797 199.704 C 97.797 164.608 71.591 140.153 33.988 140.189 Z M 61.071 229.456 C 53.809 236.018 44.346 238.898 29.391 238.898 L 23.166 238.898 L 23.166 160.297 L 29.391 160.297 C 44.328 160.297 53.415 162.98 61.071 169.904 C 69.103 177.039 73.933 188.096 73.933 199.49 C 73.933 210.939 69.122 222.317 61.071 229.456 Z"></path>
        <rect x="108.583" y="140.153" width="23.166" height="118.869"></rect>
        <path d="M 188.367 185.753 C 174.432 180.618 170.336 177.202 170.336 170.798 C 170.336 163.303 177.634 157.614 187.635 157.614 C 194.556 157.614 200.282 160.475 206.328 167.255 L 218.457 151.352 C 208.457 142.642 196.543 138.187 183.519 138.187 C 162.482 138.187 146.49 152.783 146.49 172.228 C 146.49 188.597 153.933 196.987 175.703 204.823 C 184.791 208.023 189.405 210.152 191.732 211.583 C 196.382 214.606 198.69 218.9 198.69 223.891 C 198.69 233.516 191.033 240.671 180.694 240.671 C 169.656 240.671 160.712 235.124 155.398 224.802 L 140.408 239.238 C 151.106 254.928 163.913 261.886 181.534 261.886 C 205.647 261.886 222.553 245.858 222.553 222.854 C 222.534 203.963 214.699 195.393 188.367 185.753 Z"></path>
        <path d="M 292.569 158.669 C 303.642 158.669 312.032 162.622 321.638 172.049 L 321.638 144.787 C 311.478 139.616 303.087 137.488 293.124 137.488 C 258.008 137.488 229.851 165.127 229.851 199.688 C 229.834 234.607 257.256 261.671 292.551 261.671 C 302.55 261.671 311.102 259.741 321.619 254.748 L 321.619 227.452 C 312.354 236.735 304.143 240.491 293.642 240.491 C 270.297 240.491 253.751 223.55 253.751 199.49 C 253.751 176.701 270.834 158.669 292.569 158.669 Z"></path>
        <path d="M 392.406 136.772 C 366.234 136.772 343.729 152.694 334.159 175.396 C 330.939 182.962 329.205 191.281 329.205 200.009 C 329.205 234.909 357.506 263.228 392.406 263.228 C 420.776 263.228 444.837 244.533 452.779 218.793 C 453.156 217.7 453.371 216.592 453.692 215.501 C 453.907 214.571 454.174 213.659 454.353 212.746 C 455.231 208.633 455.642 204.356 455.642 199.974 C 455.642 165.073 427.341 136.772 392.406 136.772 Z"></path>
        <polygon points="537.536 140.189 505.408 220.027 473.728 140.189 448.397 140.189 498.843 262.064 511.275 262.064 562.633 140.189"></polygon>
        <polygon points="638.839 160.314 638.839 140.153 573.117 140.153 573.117 259.025 638.839 259.025 638.839 238.898 596.282 238.898 596.282 206.807 637.301 206.807 637.301 186.683 596.282 186.683 596.282 160.314"></polygon>
        <path d="M 703.632 208.989 C 721.074 205.43 730.716 193.499 730.716 175.286 C 730.716 153.033 715.368 140.189 688.642 140.189 L 654.258 140.189 L 654.258 259.059 L 677.424 259.059 L 677.424 211.297 L 680.43 211.297 L 712.504 259.059 L 741.056 259.059 L 703.632 208.989 Z M 684.169 194.893 L 677.424 194.893 L 677.443 158.919 L 684.562 158.919 C 699.018 158.919 706.852 164.964 706.852 176.522 C 706.852 188.489 698.982 194.893 684.169 194.893 Z"></path>
        <path d="M 741.019 137.81 C 735.921 137.81 731.877 141.854 731.877 146.917 C 731.877 151.979 735.957 156.022 741.019 156.022 C 745.92 156.022 750 151.925 750 146.917 C 750 141.926 745.92 137.81 741.019 137.81 Z M 740.929 154.394 C 737.012 154.394 733.721 151.066 733.721 146.933 C 733.721 142.802 736.976 139.457 740.929 139.457 C 744.882 139.457 748.158 142.837 748.158 146.933 C 748.158 151.029 744.937 154.394 740.929 154.394 Z"></path>
        <path d="M 742.182 147.864 C 743.649 147.47 744.454 146.396 744.454 144.948 C 744.454 142.837 743.023 141.71 740.482 141.71 L 737.119 141.71 L 737.119 152.158 L 739.607 152.158 L 739.607 148.097 L 742.539 152.158 L 745.581 152.158 L 742.182 147.864 Z M 740.017 146.343 L 739.624 146.343 L 739.624 143.624 L 740.053 143.624 C 741.287 143.624 741.913 144.071 741.913 144.965 C 741.913 145.914 741.252 146.343 740.017 146.343 Z"></path>
    </g>
</svg>
