<?xml version="1.0" encoding="utf-8"?>
<svg xmlns="http://www.w3.org/2000/svg" viewBox="0 0 400 400">
    <title>MasterCard</title>
    <g>
        <g>
            <circle cx="123.75" cy="169.889" r="123.75"></circle>
            <circle cx="276.25" cy="169.889" r="123.75"></circle>
            <path d="M 247.5 169.889 C 247.5 209.47 228.917 244.711 200 267.364 C 171.083 244.711 152.5 209.47 152.5 169.889 C 152.5 130.308 171.083 95.067 200 72.414 C 228.917 95.067 247.5 130.308 247.5 169.889 Z" style="stroke-width: 2px; stroke: rgb(253, 67, 91);"></path>
            <path d="M 388.19 246.458 L 388.19 242.475 L 389.804 242.475 L 389.804 241.651 L 385.718 241.651 L 385.718 242.475 L 387.47 242.475 L 387.47 246.458 Z M 396.121 246.458 L 396.121 241.651 L 394.885 241.651 L 393.443 245.085 L 392.002 241.651 L 390.903 241.651 L 390.903 246.458 L 391.795 246.458 L 391.795 242.853 L 393.134 245.978 L 394.061 245.978 L 395.4 242.853 L 395.4 246.492 Z"></path>
        </g>
        <path d="M 72.821 352.144 L 72.821 331.545 C 73.331 324.194 67.268 318.067 59.912 318.499 C 55.291 318.195 50.871 320.432 48.378 324.335 C 46.103 320.549 41.942 318.309 37.528 318.499 C 33.686 318.305 30.029 320.16 27.916 323.374 L 27.916 319.323 L 20.774 319.323 L 20.774 352.144 L 27.984 352.144 L 27.984 334.085 C 27.331 329.301 31.197 325.105 36.017 325.365 C 40.756 325.365 43.159 328.455 43.159 334.017 L 43.159 352.281 L 50.368 352.281 L 50.368 334.085 C 49.742 329.309 53.591 325.131 58.402 325.365 C 63.277 325.365 65.611 328.455 65.611 334.017 L 65.611 352.281 Z M 179.49 319.323 L 167.748 319.323 L 167.748 309.367 L 160.538 309.367 L 160.538 319.323 L 154.016 319.323 L 154.016 325.846 L 160.676 325.846 L 160.676 340.952 C 160.676 348.573 163.628 353.105 172.073 353.105 C 175.228 353.115 178.323 352.235 181 350.564 L 178.94 344.453 C 177.025 345.596 174.852 346.233 172.623 346.308 C 169.189 346.308 167.885 344.11 167.885 340.814 L 167.885 325.846 L 179.558 325.846 Z M 240.394 318.499 C 236.847 318.394 233.527 320.239 231.742 323.304 L 231.742 319.323 L 224.669 319.323 L 224.669 352.144 L 231.811 352.144 L 231.811 333.742 C 231.811 328.318 234.144 325.296 238.676 325.296 C 240.204 325.275 241.721 325.555 243.139 326.121 L 245.337 319.254 C 243.706 318.67 241.988 318.369 240.256 318.362 Z M 148.317 321.931 C 144.274 319.528 139.627 318.336 134.927 318.499 C 126.619 318.499 121.195 322.48 121.195 329.005 C 121.195 334.359 125.176 337.655 132.524 338.685 L 135.956 339.166 C 139.871 339.716 141.725 340.745 141.725 342.6 C 141.725 345.14 139.115 346.582 134.24 346.582 C 130.319 346.696 126.474 345.486 123.323 343.149 L 119.889 348.71 C 124.05 351.615 129.032 353.106 134.103 352.968 C 143.578 352.968 149.071 348.504 149.071 342.256 C 149.071 336.007 144.746 333.467 137.605 332.437 L 134.171 331.957 C 131.082 331.545 128.61 330.926 128.61 328.73 C 128.61 326.533 130.944 324.884 134.858 324.884 C 138.475 324.926 142.022 325.895 145.158 327.699 Z M 339.577 318.499 C 336.03 318.394 332.71 320.239 330.925 323.304 L 330.925 319.323 L 323.853 319.323 L 323.853 352.144 L 330.994 352.144 L 330.994 333.742 C 330.994 328.318 333.329 325.296 337.861 325.296 C 339.388 325.275 340.904 325.555 342.324 326.121 L 344.521 319.254 C 342.89 318.67 341.172 318.369 339.44 318.362 Z M 247.568 335.665 C 247.209 345.427 255.324 353.382 265.078 352.831 C 269.365 353.049 273.579 351.651 276.887 348.916 L 273.454 343.149 C 270.986 345.031 267.976 346.067 264.871 346.101 C 256.785 345.447 252.439 336.283 257.049 329.607 C 258.846 327.004 261.719 325.346 264.871 325.09 C 267.976 325.125 270.986 326.161 273.454 328.043 L 276.887 322.275 C 273.579 319.54 269.365 318.144 265.078 318.362 C 255.324 317.809 247.209 325.765 247.568 335.527 Z M 314.446 335.665 L 314.446 319.323 L 307.306 319.323 L 307.306 323.304 C 304.845 320.139 301.012 318.35 297.005 318.499 C 283.792 318.499 275.533 332.803 282.14 344.248 C 285.206 349.558 290.873 352.831 297.005 352.831 C 301.012 352.978 304.845 351.189 307.306 348.024 L 307.306 352.007 L 314.446 352.007 Z M 287.874 335.665 C 288.323 328.039 296.858 323.761 303.236 327.963 C 309.615 332.163 309.053 341.695 302.225 345.117 C 300.861 345.801 299.356 346.162 297.829 346.17 C 292.083 346.242 287.493 341.4 287.874 335.665 Z M 201.702 318.499 C 188.487 318.684 180.43 333.105 187.197 344.456 C 190.337 349.723 196.049 352.916 202.183 352.831 C 207.122 353.084 211.979 351.492 215.812 348.366 L 212.378 343.08 C 209.668 345.254 206.309 346.463 202.834 346.513 C 197.927 346.935 193.573 343.374 193.015 338.48 L 217.391 338.48 C 217.391 337.587 217.391 336.694 217.391 335.733 C 217.391 325.434 211.005 318.567 201.805 318.567 Z M 201.702 324.884 C 206.196 324.789 209.916 328.354 210.01 332.849 L 192.844 332.849 C 193.102 328.265 196.975 324.728 201.564 324.884 Z M 380.603 335.733 L 380.603 306.139 L 373.737 306.139 L 373.737 323.304 C 371.277 320.139 367.444 318.35 363.437 318.499 C 350.224 318.499 341.965 332.803 348.572 344.248 C 351.637 349.558 357.305 352.831 363.437 352.831 C 367.444 352.978 371.277 351.189 373.737 348.024 L 373.737 352.007 L 380.603 352.007 Z M 392.516 347.371 C 392.963 347.366 393.405 347.448 393.821 347.612 C 394.216 347.773 394.576 348.005 394.885 348.298 C 395.187 348.595 395.431 348.944 395.607 349.328 C 395.958 350.139 395.958 351.059 395.607 351.869 C 395.431 352.253 395.187 352.602 394.885 352.899 C 394.576 353.192 394.216 353.424 393.821 353.585 C 393.41 353.767 392.966 353.86 392.516 353.86 C 391.188 353.85 389.985 353.075 389.426 351.869 C 389.079 351.058 389.079 350.139 389.426 349.328 C 389.602 348.944 389.846 348.595 390.147 348.298 C 390.457 348.005 390.817 347.773 391.212 347.612 C 391.659 347.434 392.138 347.352 392.619 347.371 Z M 392.516 353.173 C 392.859 353.176 393.199 353.105 393.512 352.968 C 393.807 352.836 394.076 352.649 394.301 352.419 C 395.192 351.447 395.192 349.957 394.301 348.985 C 394.076 348.753 393.807 348.567 393.512 348.436 C 393.197 348.298 392.859 348.229 392.516 348.229 C 392.174 348.232 391.835 348.301 391.52 348.436 C 391.212 348.562 390.932 348.748 390.696 348.985 C 389.807 349.957 389.807 351.447 390.696 352.419 C 390.932 352.653 391.213 352.841 391.52 352.968 C 391.867 353.117 392.242 353.187 392.619 353.173 Z M 392.722 349.088 C 393.042 349.072 393.359 349.169 393.614 349.363 C 393.827 349.539 393.943 349.808 393.923 350.084 C 393.933 350.314 393.846 350.539 393.684 350.701 C 393.485 350.883 393.23 350.991 392.963 351.01 L 393.958 352.144 L 393.168 352.144 L 392.241 351.01 L 391.932 351.01 L 391.932 352.144 L 391.28 352.144 L 391.28 349.122 Z M 391.966 349.672 L 391.966 350.496 L 392.722 350.496 C 392.856 350.536 393 350.536 393.134 350.496 C 393.184 350.399 393.184 350.284 393.134 350.187 C 393.184 350.089 393.184 349.974 393.134 349.877 C 393 349.838 392.856 349.838 392.722 349.877 Z M 354.203 335.733 C 354.651 328.109 363.186 323.83 369.564 328.031 C 375.943 332.233 375.382 341.763 368.554 345.186 C 367.189 345.87 365.685 346.231 364.158 346.238 C 358.411 346.311 353.821 341.468 354.203 335.733 Z M 113.092 335.733 L 113.092 319.323 L 105.952 319.323 L 105.952 323.304 C 103.491 320.139 99.658 318.35 95.651 318.499 C 82.437 318.499 74.179 332.803 80.785 344.248 C 83.852 349.558 89.519 352.831 95.651 352.831 C 99.658 352.978 103.491 351.189 105.952 348.024 L 105.952 352.007 L 113.092 352.007 Z M 86.519 335.733 C 86.969 328.109 95.504 323.83 101.882 328.031 C 108.26 332.233 107.699 341.763 100.871 345.186 C 99.506 345.87 98.003 346.231 96.475 346.238 C 90.701 346.352 86.067 341.496 86.451 335.733 Z"></path>
    </g>
</svg>
