<?xml version="1.0" encoding="utf-8"?>
<svg xmlns="http://www.w3.org/2000/svg" viewBox="0 0 500 400">
    <title>Visa</title>
    <g>
        <path d="M 81.239 136.442 C 78.877 127.358 72.03 124.651 63.532 124.327 L 0.523 124.327 L 0 127.295 C 49.034 139.191 81.48 167.852 94.943 202.315 L 81.239 136.442 Z"></path>
        <path d="M 140.716 125.769 L 100.911 227.465 L 96.668 212.11 C 88.818 193.608 66.532 167.037 40.369 150.292 L 76.765 274.649 L 119.768 274.576 L 183.771 125.738 L 140.716 125.769 Z"></path>
        <polygon points="200.203 125.602 174.792 274.722 215.433 274.722 240.864 125.602"></polygon>
        <path d="M 323.232 154.191 C 336.528 153.981 346.166 156.887 353.65 159.898 L 357.319 161.622 L 362.817 129.302 C 354.769 126.282 342.152 123.041 326.41 123.041 C 286.25 123.041 257.944 143.267 257.725 172.253 C 257.463 193.671 277.888 205.629 293.316 212.768 C 309.152 220.085 314.463 224.737 314.389 231.27 C 314.264 241.252 301.762 245.83 290.087 245.83 C 273.812 245.83 265.167 243.583 251.819 238.022 L 246.582 235.639 L 240.864 269.015 C 250.376 273.185 267.927 276.771 286.146 276.959 C 328.866 276.959 356.629 256.973 356.922 226.001 C 357.1 209.057 346.26 196.127 322.773 185.518 C 308.557 178.598 299.86 173.999 299.944 167.016 C 299.944 160.818 307.323 154.191 323.232 154.191 Z"></path>
        <path d="M 467.115 125.769 L 435.715 125.769 C 425.963 125.769 418.708 128.424 414.423 138.145 L 354.079 274.806 L 396.758 274.806 C 396.758 274.806 403.719 256.43 405.297 252.405 C 409.97 252.405 451.436 252.468 457.342 252.468 C 458.555 257.673 462.297 274.806 462.297 274.806 L 500 274.806 L 467.115 125.769 Z M 416.994 221.883 C 420.339 213.322 433.186 180.208 433.186 180.208 C 432.966 180.615 436.499 171.584 438.6 165.971 L 441.339 178.828 C 441.339 178.828 449.126 214.43 450.757 221.883 L 416.994 221.883 Z"></path>
    </g>
</svg>
