<?xml version="1.0" encoding="utf-8"?>
<svg xmlns="http://www.w3.org/2000/svg" viewBox="0 0 400 400">
    <title>Maestro</title>
    <g>
        <g>
            <circle cx="124" cy="168.398" r="124"></circle>
            <circle cx="276" cy="168.398" r="124"></circle>
            <path d="M 248 168.398 C 248 208.244 229.206 243.699 200 266.385 C 170.794 243.699 152 208.244 152 168.398 C 152 128.552 170.794 93.097 200 70.411 C 229.206 93.097 248 128.552 248 168.398 Z" style="stroke-width: 2px; stroke: rgb(253, 67, 91);"></path>
            <path d="M 388.19 244.712 L 388.19 240.867 L 389.804 240.867 L 389.804 240.044 L 385.718 240.044 L 385.718 240.867 L 387.331 240.867 L 387.331 244.85 Z M 396.12 244.712 L 396.12 239.906 L 394.884 239.906 L 393.442 243.34 L 392.001 239.906 L 390.73 239.906 L 390.73 244.712 L 391.623 244.712 L 391.623 241.108 L 392.962 244.232 L 393.889 244.232 L 395.228 241.108 L 395.228 244.748 Z"></path>
        </g>
        <path d="M 121.056 353.886 L 121.056 333.287 C 121.568 325.956 115.518 319.846 108.182 320.276 C 103.561 319.973 99.139 322.208 96.647 326.111 C 94.374 322.324 90.209 320.086 85.798 320.276 C 81.956 320.083 78.299 321.936 76.185 325.15 L 76.185 321.099 L 69.044 321.099 L 69.044 353.886 L 76.254 353.886 L 76.254 335.724 C 75.574 330.932 79.456 326.719 84.287 327.004 C 89.025 327.004 91.428 330.094 91.428 335.655 L 91.428 353.886 L 98.638 353.886 L 98.638 335.724 C 98.013 330.948 101.862 326.771 106.671 327.004 C 111.546 327.004 113.881 330.094 113.881 335.655 L 113.881 353.886 Z M 161.224 337.509 L 161.224 321.133 L 154.014 321.133 L 154.014 325.116 C 151.56 321.947 147.721 320.159 143.715 320.31 C 130.501 320.31 122.244 334.615 128.85 346.058 C 131.915 351.369 137.583 354.64 143.715 354.64 C 147.721 354.795 151.56 353.007 154.014 349.834 L 154.014 353.817 L 161.155 353.817 Z M 134.686 337.509 C 135.135 329.884 143.67 325.607 150.049 329.808 C 156.428 334.012 155.866 343.541 149.036 346.964 C 147.674 347.648 146.17 348.008 144.642 348.015 C 138.857 348.152 134.212 343.28 134.617 337.509 Z M 313.793 320.344 C 316.144 320.34 318.475 320.784 320.659 321.648 C 322.746 322.486 324.646 323.722 326.256 325.288 C 327.845 326.843 329.105 328.697 329.962 330.746 C 331.758 335.147 331.758 340.077 329.962 344.479 C 329.105 346.528 327.845 348.386 326.256 349.937 C 324.646 351.506 322.746 352.742 320.659 353.576 C 316.131 355.338 311.112 355.338 306.584 353.576 C 304.51 352.742 302.618 351.506 301.022 349.937 C 299.45 348.379 298.2 346.524 297.348 344.479 C 295.559 340.077 295.559 335.151 297.348 330.746 C 298.2 328.703 299.45 326.845 301.022 325.288 C 302.618 323.722 304.51 322.483 306.584 321.648 C 308.846 320.711 311.274 320.234 313.724 320.24 Z M 313.793 327.21 C 312.396 327.193 311.006 327.45 309.707 327.965 C 308.486 328.456 307.373 329.194 306.446 330.128 C 305.498 331.114 304.764 332.284 304.283 333.562 C 303.236 336.304 303.236 339.336 304.283 342.076 C 304.764 343.356 305.498 344.523 306.446 345.508 C 307.373 346.446 308.486 347.184 309.707 347.672 C 312.323 348.699 315.228 348.699 317.845 347.672 C 319.129 347.198 320.295 346.463 321.277 345.508 C 322.229 344.527 322.963 343.356 323.44 342.076 C 324.491 339.336 324.491 336.304 323.44 333.562 C 322.963 332.28 322.229 331.114 321.277 330.128 C 320.295 329.176 319.129 328.439 317.845 327.965 C 316.55 327.375 315.15 327.045 313.724 327.004 Z M 200.018 337.509 C 200.018 327.21 193.633 320.344 184.466 320.344 C 171.252 320.529 163.194 334.952 169.961 346.302 C 173.102 351.568 178.816 354.76 184.947 354.675 C 189.835 354.843 194.614 353.205 198.37 350.075 L 194.937 344.788 C 192.225 346.964 188.868 348.169 185.394 348.22 C 180.488 348.643 176.134 345.084 175.574 340.188 L 199.916 340.188 C 200.018 339.328 200.018 338.471 200.018 337.509 Z M 175.609 334.626 C 175.884 330.097 179.69 326.596 184.226 326.696 C 188.72 326.599 192.442 330.166 192.534 334.66 Z M 230.059 329.476 C 226.924 327.67 223.378 326.701 219.759 326.661 C 215.846 326.661 213.51 328.102 213.51 330.506 C 213.51 332.908 215.982 333.321 219.073 333.733 L 222.506 334.214 C 229.647 335.244 233.973 338.264 233.973 344.032 C 233.973 349.8 228.48 354.744 219.038 354.744 C 213.978 354.881 209.01 353.388 204.859 350.486 L 208.293 344.925 C 211.444 347.264 215.29 348.472 219.21 348.358 C 224.085 348.358 226.694 346.916 226.694 344.376 C 226.694 342.521 224.841 341.492 220.926 340.942 L 217.494 340.461 C 210.146 339.432 206.164 336.136 206.164 330.78 C 206.164 324.257 211.52 320.276 219.896 320.276 C 224.586 320.12 229.221 321.312 233.252 323.708 Z M 264.39 327.621 L 252.751 327.621 L 252.751 342.419 C 252.751 345.852 253.918 347.912 257.49 347.912 C 259.718 347.84 261.89 347.2 263.806 346.058 L 265.866 352.169 C 263.189 353.84 260.095 354.72 256.94 354.709 C 248.494 354.709 245.542 350.178 245.542 342.556 L 245.542 327.621 L 238.882 327.621 L 238.882 321.099 L 245.542 321.099 L 245.542 311.143 L 252.751 311.143 L 252.751 321.099 L 264.39 321.099 Z M 289.074 320.276 C 290.808 320.281 292.525 320.584 294.155 321.168 L 291.958 328.034 C 290.54 327.47 289.022 327.189 287.495 327.21 C 282.826 327.21 280.629 330.231 280.629 335.655 L 280.629 354.023 L 273.488 354.023 L 273.488 321.236 L 280.561 321.236 L 280.561 325.219 C 282.346 322.153 285.666 320.31 289.212 320.412 Z M 338.442 349.114 C 338.889 349.109 339.333 349.192 339.748 349.353 C 340.142 349.515 340.502 349.748 340.812 350.041 C 341.114 350.339 341.358 350.686 341.533 351.07 C 341.883 351.88 341.883 352.8 341.533 353.611 C 341.358 353.996 341.114 354.345 340.812 354.64 C 340.502 354.936 340.142 355.166 339.748 355.327 C 339.335 355.509 338.893 355.602 338.442 355.602 C 337.114 355.592 335.913 354.816 335.354 353.611 C 335.007 352.8 335.007 351.884 335.354 351.07 C 335.528 350.686 335.772 350.339 336.074 350.041 C 336.383 349.748 336.743 349.515 337.138 349.353 C 337.499 349.209 337.883 349.131 338.271 349.114 Z M 338.442 354.916 C 338.786 354.919 339.126 354.847 339.438 354.709 C 339.734 354.579 340.002 354.394 340.229 354.16 C 341.488 352.893 341.08 350.754 339.438 350.041 C 339.126 349.903 338.786 349.834 338.442 349.834 C 338.1 349.838 337.763 349.907 337.448 350.041 C 337.138 350.168 336.86 350.356 336.623 350.59 C 335.734 351.562 335.734 353.052 336.623 354.023 C 337.104 354.511 337.76 354.782 338.442 354.778 Z M 338.649 350.83 C 338.969 350.816 339.284 350.912 339.542 351.105 C 339.754 351.284 339.872 351.551 339.85 351.826 C 339.861 352.056 339.775 352.282 339.61 352.444 C 339.411 352.626 339.157 352.736 338.889 352.753 L 339.885 353.886 L 339.096 353.886 L 338.169 352.753 L 337.859 352.753 L 337.859 353.886 L 337.207 353.886 L 337.207 350.727 Z M 337.894 351.413 L 337.894 352.238 L 338.649 352.238 C 338.783 352.28 338.927 352.28 339.062 352.238 C 339.109 352.141 339.109 352.028 339.062 351.928 C 339.109 351.832 339.109 351.719 339.062 351.619 C 338.927 351.582 338.783 351.582 338.649 351.619 Z"></path>
    </g>
</svg>
