<?xml version="1.0" encoding="utf-8"?>
<svg xmlns="http://www.w3.org/2000/svg" viewBox="0 0 600 400">
    <title>American Express</title>
    <g>
        <g>
            <path d="M 541.555 97.428 L 525.109 97.428 C 518.959 97.428 514 102.4 514 108.525 L 514 115.465 L 506.371 102.801 C 504.342 99.482 500.747 97.441 496.877 97.441 L 472.39 97.441 C 466.252 97.441 461.292 102.414 461.292 108.538 L 461.292 117.97 L 455.392 104.167 C 453.65 100.096 449.642 97.441 445.208 97.441 L 421.134 97.441 C 418.692 97.441 416.363 98.242 414.509 99.645 C 412.667 98.254 410.35 97.441 407.857 97.441 L 392.338 97.441 C 379.136 97.441 369.366 100.634 362.177 106.872 C 361.35 101.574 356.953 97.441 351.417 97.441 L 335.009 97.441 C 330.624 97.441 326.954 100.033 325.125 103.69 C 324.437 103.19 323.911 102.589 323.135 102.138 C 315.594 97.778 307.665 97.441 298.107 97.441 L 261.157 97.441 C 259.079 97.441 257.262 98.167 255.583 99.157 C 253.943 98.167 252.102 97.441 250.022 97.441 L 196.363 97.441 C 194.095 97.441 192.128 98.28 190.375 99.432 C 188.609 98.28 186.643 97.441 184.388 97.441 L 157.608 97.441 C 153.174 97.441 149.154 100.108 147.413 104.217 L 137.868 126.712 L 127.359 103.891 C 125.53 99.958 121.585 97.441 117.276 97.441 L 91.047 97.441 C 84.909 97.441 79.95 102.414 79.95 108.538 L 79.95 118.195 L 73.924 104.142 C 72.171 100.071 68.163 97.428 63.716 97.428 L 39.867 97.428 C 35.421 97.428 31.413 100.083 29.659 104.154 L 0.901 171.379 C -0.578 174.824 -0.214 178.731 1.827 181.863 C 3.882 184.969 7.364 186.848 11.096 186.848 L 28.557 186.848 C 33.016 186.848 37.062 184.142 38.778 180.009 L 42.172 171.842 L 60.786 171.842 L 64.13 179.959 C 65.833 184.118 69.891 186.836 74.401 186.836 L 107.079 186.836 C 113.217 186.836 118.178 181.863 118.178 175.738 L 118.178 175.474 L 120.282 180.247 C 122.06 184.255 126.044 186.848 130.428 186.848 L 144.545 186.873 C 148.953 186.873 152.911 184.28 154.689 180.26 L 156.819 175.5 L 156.819 175.776 C 156.819 181.9 161.779 186.861 167.917 186.861 L 184.388 186.861 C 186.643 186.861 188.609 186.009 190.375 184.869 C 192.128 186.009 194.095 186.861 196.363 186.861 L 250.022 186.861 C 252.102 186.861 253.943 186.134 255.583 185.145 C 257.25 186.134 259.079 186.861 261.157 186.861 L 277.241 186.861 C 283.377 186.861 288.338 181.888 288.338 175.762 L 288.338 162.411 L 294.475 162.411 C 295.866 162.411 296.856 162.448 297.594 162.499 C 297.669 163.638 297.644 164.991 297.644 165.892 L 297.619 167.371 L 297.681 175.851 C 297.732 181.938 302.705 186.861 308.792 186.861 L 325.001 186.861 C 326.816 186.861 328.458 186.297 329.973 185.521 C 331.514 186.309 333.167 186.861 334.995 186.861 L 351.404 186.861 C 356.79 186.861 361.049 182.978 362.089 177.918 C 371.195 185.57 384.022 186.861 391.16 186.861 L 409.987 186.861 C 414.47 186.861 418.529 184.105 420.22 179.908 L 423.49 171.855 L 442.002 171.855 L 445.397 180.021 C 447.113 184.142 451.146 186.848 455.642 186.848 L 488.334 186.848 C 494.472 186.848 499.432 181.875 499.432 175.75 L 499.432 165.141 L 509.29 181.488 C 511.307 184.807 514.901 186.848 518.809 186.848 L 541.555 186.848 C 547.693 186.848 552.653 181.875 552.653 175.75 L 552.653 108.525 C 552.653 102.4 547.668 97.428 541.555 97.428 Z M 184.375 175.738 L 167.904 175.738 L 167.841 123.093 L 144.545 175.738 L 130.428 175.738 L 107.092 123.043 L 107.092 175.738 L 74.388 175.738 L 68.212 160.744 L 34.77 160.744 L 28.532 175.738 L 11.071 175.738 L 39.842 108.513 L 63.691 108.513 L 91.034 172.168 L 91.034 108.513 L 117.264 108.513 L 138.294 154.119 L 157.596 108.513 L 184.375 108.513 C 184.375 108.513 184.375 175.738 184.375 175.738 Z M 250.009 122.517 L 212.408 122.517 L 212.408 134.629 L 249.12 134.629 L 249.12 148.407 L 212.408 148.407 L 212.408 161.834 L 250.009 161.834 L 250.009 175.738 L 196.35 175.738 L 196.35 108.513 L 250.009 108.513 L 250.009 122.517 Z M 314.353 144.549 C 317.874 145.902 320.88 148.257 322.308 150.211 C 324.587 153.555 324.975 156.536 324.975 162.536 L 324.975 175.725 L 308.767 175.725 L 308.691 167.246 C 308.691 163.213 309.08 157.4 306.162 154.156 C 303.819 151.802 300.237 151.288 294.45 151.288 L 277.227 151.288 L 277.227 175.738 L 261.145 175.738 L 261.132 175.738 L 261.132 108.525 L 298.083 108.525 C 306.3 108.525 312.349 108.739 317.535 111.745 C 322.621 114.751 325.664 119.134 325.664 126.638 C 325.664 137.347 318.512 142.896 314.353 144.549 Z M 351.417 175.738 L 335.009 175.738 L 335.009 108.513 L 351.417 108.513 L 351.417 175.738 Z M 541.555 175.738 L 518.796 175.738 L 488.322 125.284 L 488.322 175.738 L 455.63 175.738 L 449.368 160.744 L 415.974 160.744 L 409.937 175.738 L 391.123 175.738 C 383.32 175.738 373.461 174.009 367.875 168.31 C 362.189 162.598 359.258 154.857 359.258 142.645 C 359.258 132.675 361.023 123.556 367.863 116.342 C 373.035 110.98 381.166 108.513 392.263 108.513 L 407.782 108.513 L 407.782 122.918 L 392.563 122.918 C 386.714 122.918 383.395 123.782 380.213 126.901 C 377.471 129.732 375.603 135.08 375.603 142.131 C 375.603 149.322 377.031 154.507 380.038 157.902 C 382.53 160.569 387.04 161.371 391.236 161.371 L 398.438 161.371 L 421.134 108.513 L 445.208 108.513 L 472.39 172.093 L 472.39 108.513 L 496.877 108.513 L 525.109 155.334 L 525.109 108.513 L 541.555 108.513 L 541.555 175.738 Z M 398.162 134.028 L 391.186 150.298 C 389.645 150.298 388.606 150.123 388.03 149.973 C 387.491 148.971 386.752 146.754 386.752 142.144 C 386.752 137.485 387.88 135.067 388.03 134.854 C 388.493 134.403 388.882 134.016 392.651 134.016 L 398.162 134.028 Z"></path>
            <polygon points="51.416 119.949 40.506 146.742 62.414 146.742"></polygon>
            <path d="M 304.621 123.744 C 302.718 122.667 299.786 122.529 297.006 122.529 L 277.215 122.529 L 277.215 137.448 L 296.743 137.448 C 299.837 137.448 302.442 137.397 304.683 136.069 C 306.751 134.979 307.991 132.613 307.991 129.681 C 307.991 126.8 306.701 124.722 304.621 123.744 Z"></path>
            <polygon points="432.809 119.949 421.774 146.742 443.956 146.742"></polygon>
        </g>
        <g>
            <path d="M 591.984 248.211 C 591.871 248.098 591.745 247.974 591.632 247.885 C 594.677 245.906 596.706 242.474 596.706 238.567 L 596.706 224.25 C 596.706 218.1 591.733 213.139 585.595 213.139 L 553.405 213.139 C 543.372 213.139 535.806 216.096 530.296 220.555 C 528.755 216.246 524.796 213.139 519.949 213.139 L 487.758 213.139 C 478.902 213.139 471.925 215.331 466.615 218.938 C 464.686 215.494 461.216 213.139 457.058 213.139 L 403.448 213.139 C 399.127 213.139 395.482 215.658 393.641 219.252 C 392.876 218.713 392.314 218.086 391.512 217.611 C 383.734 213.452 375.465 213.139 366.949 213.139 L 329.835 213.139 C 325.514 213.139 321.857 215.682 320.028 219.302 C 314.378 215.632 306.475 213.139 295.239 213.139 L 243.909 213.139 C 240.816 213.139 237.872 214.392 235.755 216.672 L 223.593 229.786 L 211.92 216.822 C 209.827 214.43 206.834 213.127 203.665 213.127 L 139.058 213.127 C 132.92 213.127 127.96 218.1 127.96 224.238 L 127.96 291.462 C 127.96 297.612 132.932 302.572 139.058 302.572 L 202.7 302.572 C 205.794 302.572 208.737 301.282 210.842 299.002 L 223.105 285.738 L 234.741 298.827 C 236.845 301.207 239.876 302.547 243.045 302.547 L 274.272 302.547 C 280.422 302.547 285.381 297.574 285.381 291.462 L 285.381 279.988 L 294.313 279.988 C 305.172 279.988 313.026 277.759 318.738 274.364 L 318.738 291.462 C 318.738 297.586 323.711 302.547 329.847 302.547 L 345.993 302.547 C 352.143 302.547 357.103 297.574 357.103 291.462 L 357.103 277.984 L 363.153 277.984 C 364.632 277.984 365.671 278.035 366.422 278.084 C 366.473 279.288 366.473 280.728 366.447 281.679 L 366.447 291.462 C 366.447 297.586 371.445 302.547 377.558 302.547 L 393.678 302.547 C 395.482 302.547 397.11 302.059 398.588 301.294 C 400.092 302.034 401.707 302.547 403.486 302.547 L 457.108 302.547 C 458.849 302.547 460.465 302.059 461.93 301.345 C 463.396 302.059 464.974 302.547 466.753 302.547 L 498.042 302.547 C 508 302.547 516.116 300.104 522.191 295.796 C 523.856 299.754 527.79 302.547 532.387 302.547 L 563.676 302.547 C 586.435 302.547 600 290.46 600 270.231 C 600 260.862 597.47 253.885 591.984 248.211 Z M 294.325 268.879 L 274.284 268.879 L 274.284 291.436 L 243.057 291.436 L 223.267 269.192 L 202.7 291.436 L 139.058 291.436 L 139.058 224.199 L 203.665 224.199 L 223.455 246.244 L 243.897 224.199 L 295.227 224.199 C 307.965 224.199 322.308 227.769 322.308 246.382 C 322.308 265.033 308.379 268.916 294.325 268.879 Z M 383.17 260.223 C 386.726 261.525 389.645 263.893 390.998 265.872 C 393.29 269.154 393.59 272.21 393.666 278.134 L 393.666 291.462 L 377.545 291.462 L 377.545 283.045 C 377.545 279.012 377.934 273.012 374.928 269.881 C 372.623 267.488 369.053 266.924 363.165 266.924 L 346.005 266.924 L 346.005 291.462 L 329.861 291.462 L 329.861 224.238 L 366.973 224.238 C 375.09 224.238 381.002 224.575 386.3 227.394 C 391.361 230.45 394.555 234.658 394.555 242.312 C 394.555 253.058 387.378 258.532 383.17 260.223 Z M 457.082 238.128 L 419.456 238.128 L 419.456 250.365 L 456.156 250.365 L 456.156 264.093 L 419.456 264.093 L 419.456 277.446 L 457.082 277.521 L 457.082 291.462 L 403.474 291.462 L 403.474 224.238 L 457.082 224.238 L 457.082 238.128 Z M 498.054 291.387 L 466.765 291.387 L 466.765 276.945 L 497.916 276.945 C 500.947 276.945 503.114 276.568 504.467 275.278 C 505.57 274.251 506.346 272.712 506.346 270.883 C 506.346 268.928 505.519 267.387 504.392 266.449 C 503.14 265.422 501.486 264.957 498.668 264.957 C 483.662 264.469 464.837 265.422 464.837 244.165 C 464.837 234.382 470.948 224.149 487.808 224.149 L 520 224.149 L 520 238.454 L 490.526 238.454 C 487.583 238.454 485.692 238.579 484.088 239.682 C 482.322 240.783 481.658 242.4 481.658 244.528 C 481.658 247.071 483.149 248.762 485.165 249.538 C 486.881 250.128 488.686 250.303 491.428 250.303 L 500.058 250.554 C 508.764 250.791 514.763 252.295 518.383 255.964 C 521.539 259.208 523.206 263.317 523.206 270.218 C 523.206 284.71 514.2 291.462 498.054 291.387 Z M 563.701 291.387 L 532.412 291.387 L 532.412 276.945 L 563.575 276.945 C 566.606 276.945 568.774 276.568 570.114 275.278 C 571.217 274.251 571.993 272.712 571.993 270.883 C 571.993 268.928 571.166 267.387 570.038 266.449 C 568.799 265.422 567.145 264.957 564.314 264.957 C 549.296 264.469 530.483 265.422 530.483 244.165 C 530.483 234.382 536.596 224.149 553.454 224.149 L 585.646 224.149 L 585.646 238.454 L 556.186 238.454 C 553.23 238.454 551.326 238.579 549.734 239.682 C 547.969 240.783 547.318 242.4 547.318 244.528 C 547.318 247.071 548.82 248.762 550.812 249.538 C 552.54 250.128 554.332 250.303 557.075 250.303 L 565.705 250.554 C 574.423 250.791 580.435 252.295 584.054 255.964 C 587.186 259.208 588.877 263.317 588.877 270.218 C 588.877 284.71 579.846 291.462 563.701 291.387 Z"></path>
            <polygon points="195.36 238.141 155.103 238.141 155.103 250.353 190.363 250.353 190.363 264.081 155.103 264.081 155.103 277.459 194.583 277.459 212.934 257.706"></polygon>
            <polygon points="233.613 257.956 258.289 285.362 258.289 231.464"></polygon>
            <path d="M 295.239 238.116 L 274.297 238.116 L 274.297 255.238 L 295.039 255.238 C 301.214 255.238 305.059 252.182 305.059 246.382 C 305.047 240.47 301.051 238.116 295.239 238.116 Z"></path>
            <path d="M 373.461 239.355 C 371.508 238.19 368.627 238.141 365.796 238.141 L 346.005 238.141 L 346.005 253.233 L 365.533 253.233 C 368.665 253.233 371.333 253.134 373.5 251.869 C 375.578 250.591 376.819 248.299 376.819 245.406 C 376.781 242.512 375.541 240.433 373.461 239.355 Z"></path>
        </g>
    </g>
</svg>
