<?xml version="1.0" encoding="utf-8"?>
<svg xmlns="http://www.w3.org/2000/svg" viewBox="0 0 430 270">
    <defs>
        <linearGradient gradientUnits="userSpaceOnUse" x1="102" y1="3" x2="102" y2="7" id="gradient-1" spreadMethod="pad" gradientTransform="matrix(0.999998, 0.002233, -0.055916, 25.043752, 30.168257, -72.358994)">
            <stop offset="0" style="stop-color: rgb(255, 255, 255); stop-opacity: 0.75;"/>
            <stop offset="1" style="stop-color: rgb(255, 255, 255); stop-opacity: 0.1;"/>
        </linearGradient>
        <linearGradient gradientUnits="userSpaceOnUse" x1="144.996" y1="65" x2="144.996" y2="205" id="gradient-2" gradientTransform="matrix(1.066667, 0, 0, 1, -9.666099, 0.003733)">
            <stop offset="0" style="stop-color: rgb(255, 255, 255); stop-opacity: 0.2;"/>
            <stop offset="1" style="stop-color: rgb(255, 255, 255); stop-opacity: 0;"/>
        </linearGradient>
        <linearGradient gradientUnits="userSpaceOnUse" x1="285.004" y1="65.004" x2="285.004" y2="205.004" id="gradient-3" gradientTransform="matrix(1, 0.000015, -0.000011, 0.79936, 0.000691, 13.038103)">
            <stop offset="0" style="stop-color: rgb(255, 255, 255); stop-opacity: 0.15;"/>
            <stop offset="1" style="stop-color: rgb(255, 255, 255); stop-opacity: 0;"/>
        </linearGradient>
        <linearGradient gradientUnits="userSpaceOnUse" x1="102" y1="3" x2="102" y2="7" id="gradient-4" spreadMethod="pad" gradientTransform="matrix(0.999998, 0.002233, -0.055916, 25.043753, 280.168427, 86.641846)">
            <stop offset="0" style="stop-color: rgb(255, 255, 255); stop-opacity: 0.75;"/>
            <stop offset="1" style="stop-color: rgb(255, 255, 255); stop-opacity: 0.1;"/>
        </linearGradient>
        <linearGradient gradientUnits="userSpaceOnUse" x1="46.852" y1="84.928" x2="46.852" y2="134.928" id="gradient-0" gradientTransform="matrix(0.630931, -0.77584, 1.162801, 1.006553, -107.859161, 35.137875)">
            <stop offset="0" style="stop-color: rgb(221, 197, 135);"/>
            <stop offset="1" style="stop-color: rgb(244, 230, 193);"/>
        </linearGradient>
    </defs>
    <rect width="430" height="270" style="fill: rgb(253, 67, 91); paint-order: fill;"/>
    <path d="M 144.996 65.004 L 224.996 205.004 L 64.996 205.004 L 144.996 65.004 Z" style="fill: url(#gradient-2);" transform="matrix(-0.000053, -1, 1, -0.000053, 9.999689, 280.007155)"/>
    <path d="M 134 5 C 134 6.105 133.105 7 132 7 C 130.895 7 130 6.105 130 5 C 130 3.895 130.895 3 132 3 C 133.105 3 134 3.895 134 5 Z M 134 13 C 134 14.105 133.105 15 132 15 C 130.895 15 130 14.105 130 13 C 130 11.895 130.895 11 132 11 C 133.105 11 134 11.895 134 13 Z M 134 21 C 134 22.105 133.105 23 132 23 C 130.895 23 130 22.105 130 21 C 130 19.895 130.895 19 132 19 C 133.105 19 134 19.895 134 21 Z M 134 29 C 134 30.105 133.105 31 132 31 C 130.895 31 130 30.105 130 29 C 130 27.895 130.895 27 132 27 C 133.105 27 134 27.895 134 29 Z M 134 37 C 134 38.105 133.105 39 132 39 C 130.895 39 130 38.105 130 37 C 130 35.895 130.895 35 132 35 C 133.105 35 134 35.895 134 37 Z M 134 45 C 134 46.105 133.105 47 132 47 C 130.895 47 130 46.105 130 45 C 130 43.895 130.895 43 132 43 C 133.105 43 134 43.895 134 45 Z M 134 53 C 134 54.105 133.105 55 132 55 C 130.895 55 130 54.105 130 53 C 130 51.895 130.895 51 132 51 C 133.105 51 134 51.895 134 53 Z M 134 61 C 134 62.105 133.105 63 132 63 C 130.895 63 130 62.105 130 61 C 130 59.895 130.895 59 132 59 C 133.105 59 134 59.895 134 61 Z M 134 69 C 134 70.105 133.105 71 132 71 C 130.895 71 130 70.105 130 69 C 130 67.895 130.895 67 132 67 C 133.105 67 134 67.895 134 69 Z M 134 77 C 134 78.105 133.105 79 132 79 C 130.895 79 130 78.105 130 77 C 130 75.895 130.895 75 132 75 C 133.105 75 134 75.895 134 77 Z M 134 85 C 134 86.105 133.105 87 132 87 C 130.895 87 130 86.105 130 85 C 130 83.895 130.895 83 132 83 C 133.105 83 134 83.895 134 85 Z M 134 93 C 134 94.105 133.105 95 132 95 C 130.895 95 130 94.105 130 93 C 130 91.895 130.895 91 132 91 C 133.105 91 134 91.895 134 93 Z M 134 101 C 134 102.105 133.105 103 132 103 C 130.895 103 130 102.105 130 101 C 130 99.895 130.895 99 132 99 C 133.105 99 134 99.895 134 101 Z M 119 5 C 119 6.105 118.105 7 117 7 C 115.895 7 115 6.105 115 5 C 115 3.895 115.895 3 117 3 C 118.105 3 119 3.895 119 5 Z M 119 13 C 119 14.105 118.105 15 117 15 C 115.895 15 115 14.105 115 13 C 115 11.895 115.895 11 117 11 C 118.105 11 119 11.895 119 13 Z M 119 21 C 119 22.105 118.105 23 117 23 C 115.895 23 115 22.105 115 21 C 115 19.895 115.895 19 117 19 C 118.105 19 119 19.895 119 21 Z M 119 29 C 119 30.105 118.105 31 117 31 C 115.895 31 115 30.105 115 29 C 115 27.895 115.895 27 117 27 C 118.105 27 119 27.895 119 29 Z M 119 37 C 119 38.105 118.105 39 117 39 C 115.895 39 115 38.105 115 37 C 115 35.895 115.895 35 117 35 C 118.105 35 119 35.895 119 37 Z M 119 45 C 119 46.105 118.105 47 117 47 C 115.895 47 115 46.105 115 45 C 115 43.895 115.895 43 117 43 C 118.105 43 119 43.895 119 45 Z M 119 53 C 119 54.105 118.105 55 117 55 C 115.895 55 115 54.105 115 53 C 115 51.895 115.895 51 117 51 C 118.105 51 119 51.895 119 53 Z M 104 5 C 104 6.105 103.105 7 102 7 C 100.895 7 100 6.105 100 5 C 100 3.895 100.895 3 102 3 C 103.105 3 104 3.895 104 5 Z M 104 13 C 104 14.105 103.105 15 102 15 C 100.895 15 100 14.105 100 13 C 100 11.895 100.895 11 102 11 C 103.105 11 104 11.895 104 13 Z M 104 21 C 104 22.105 103.105 23 102 23 C 100.895 23 100 22.105 100 21 C 100 19.895 100.895 19 102 19 C 103.105 19 104 19.895 104 21 Z M 104 29 C 104 30.105 103.105 31 102 31 C 100.895 31 100 30.105 100 29 C 100 27.895 100.895 27 102 27 C 103.105 27 104 27.895 104 29 Z M 104 37 C 104 38.105 103.105 39 102 39 C 100.895 39 100 38.105 100 37 C 100 35.895 100.895 35 102 35 C 103.105 35 104 35.895 104 37 Z M 104 45 C 104 46.105 103.105 47 102 47 C 100.895 47 100 46.105 100 45 C 100 43.895 100.895 43 102 43 C 103.105 43 104 43.895 104 45 Z M 104 53 C 104 54.105 103.105 55 102 55 C 100.895 55 100 54.105 100 53 C 100 51.895 100.895 51 102 51 C 103.105 51 104 51.895 104 53 Z M 104 61 C 104 62.105 103.105 63 102 63 C 100.895 63 100 62.105 100 61 C 100 59.895 100.895 59 102 59 C 103.105 59 104 59.895 104 61 Z M 104 69 C 104 70.105 103.105 71 102 71 C 100.895 71 100 70.105 100 69 C 100 67.895 100.895 67 102 67 C 103.105 67 104 67.895 104 69 Z" style="paint-order: fill; fill: url(#gradient-1); filter: none;"/>
    <path d="M 285.004 205.004 L 365.004 65.004 L 205.004 65.004 L 285.004 205.004 Z" style="fill: url(#gradient-3);" transform="matrix(0.000053, -1, 1, 0.000053, 149.984895, 420.00084)"/>
    <path d="M 384 164 C 384 165.105 383.105 166 382 166 C 380.895 166 380 165.105 380 164 C 380 162.895 380.895 162 382 162 C 383.105 162 384 162.895 384 164 Z M 384 172 C 384 173.105 383.105 174 382 174 C 380.895 174 380 173.105 380 172 C 380 170.895 380.895 170 382 170 C 383.105 170 384 170.895 384 172 Z M 384 180 C 384 181.105 383.105 182 382 182 C 380.895 182 380 181.105 380 180 C 380 178.895 380.895 178 382 178 C 383.105 178 384 178.895 384 180 Z M 384 188 C 384 189.105 383.105 190 382 190 C 380.895 190 380 189.105 380 188 C 380 186.895 380.895 186 382 186 C 383.105 186 384 186.895 384 188 Z M 384 196 C 384 197.105 383.105 198 382 198 C 380.895 198 380 197.105 380 196 C 380 194.895 380.895 194 382 194 C 383.105 194 384 194.895 384 196 Z M 384 204 C 384 205.105 383.105 206 382 206 C 380.895 206 380 205.105 380 204 C 380 202.895 380.895 202 382 202 C 383.105 202 384 202.895 384 204 Z M 384 212 C 384 213.105 383.105 214 382 214 C 380.895 214 380 213.105 380 212 C 380 210.895 380.895 210 382 210 C 383.105 210 384 210.895 384 212 Z M 384 220 C 384 221.105 383.105 222 382 222 C 380.895 222 380 221.105 380 220 C 380 218.895 380.895 218 382 218 C 383.105 218 384 218.895 384 220 Z M 384 228 C 384 229.105 383.105 230 382 230 C 380.895 230 380 229.105 380 228 C 380 226.895 380.895 226 382 226 C 383.105 226 384 226.895 384 228 Z M 384 236 C 384 237.105 383.105 238 382 238 C 380.895 238 380 237.105 380 236 C 380 234.895 380.895 234 382 234 C 383.105 234 384 234.895 384 236 Z M 384 244 C 384 245.105 383.105 246 382 246 C 380.895 246 380 245.105 380 244 C 380 242.895 380.895 242 382 242 C 383.105 242 384 242.895 384 244 Z M 384 252 C 384 253.105 383.105 254 382 254 C 380.895 254 380 253.105 380 252 C 380 250.895 380.895 250 382 250 C 383.105 250 384 250.895 384 252 Z M 384 260 C 384 261.105 383.105 262 382 262 C 380.895 262 380 261.105 380 260 C 380 258.895 380.895 258 382 258 C 383.105 258 384 258.895 384 260 Z M 369 164 C 369 165.105 368.105 166 367 166 C 365.895 166 365 165.105 365 164 C 365 162.895 365.895 162 367 162 C 368.105 162 369 162.895 369 164 Z M 369 172 C 369 173.105 368.105 174 367 174 C 365.895 174 365 173.105 365 172 C 365 170.895 365.895 170 367 170 C 368.105 170 369 170.895 369 172 Z M 369 180 C 369 181.105 368.105 182 367 182 C 365.895 182 365 181.105 365 180 C 365 178.895 365.895 178 367 178 C 368.105 178 369 178.895 369 180 Z M 369 188 C 369 189.105 368.105 190 367 190 C 365.895 190 365 189.105 365 188 C 365 186.895 365.895 186 367 186 C 368.105 186 369 186.895 369 188 Z M 369 196 C 369 197.105 368.105 198 367 198 C 365.895 198 365 197.105 365 196 C 365 194.895 365.895 194 367 194 C 368.105 194 369 194.895 369 196 Z M 369 204 C 369 205.105 368.105 206 367 206 C 365.895 206 365 205.105 365 204 C 365 202.895 365.895 202 367 202 C 368.105 202 369 202.895 369 204 Z M 369 212 C 369 213.105 368.105 214 367 214 C 365.895 214 365 213.105 365 212 C 365 210.895 365.895 210 367 210 C 368.105 210 369 210.895 369 212 Z M 354 164 C 354 165.105 353.105 166 352 166 C 350.895 166 350 165.105 350 164 C 350 162.895 350.895 162 352 162 C 353.105 162 354 162.895 354 164 Z M 354 172 C 354 173.105 353.105 174 352 174 C 350.895 174 350 173.105 350 172 C 350 170.895 350.895 170 352 170 C 353.105 170 354 170.895 354 172 Z M 354 180 C 354 181.105 353.105 182 352 182 C 350.895 182 350 181.105 350 180 C 350 178.895 350.895 178 352 178 C 353.105 178 354 178.895 354 180 Z M 354 188 C 354 189.105 353.105 190 352 190 C 350.895 190 350 189.105 350 188 C 350 186.895 350.895 186 352 186 C 353.105 186 354 186.895 354 188 Z M 354 196 C 354 197.105 353.105 198 352 198 C 350.895 198 350 197.105 350 196 C 350 194.895 350.895 194 352 194 C 353.105 194 354 194.895 354 196 Z M 354 204 C 354 205.105 353.105 206 352 206 C 350.895 206 350 205.105 350 204 C 350 202.895 350.895 202 352 202 C 353.105 202 354 202.895 354 204 Z M 354 212 C 354 213.105 353.105 214 352 214 C 350.895 214 350 213.105 350 212 C 350 210.895 350.895 210 352 210 C 353.105 210 354 210.895 354 212 Z M 354 220 C 354 221.105 353.105 222 352 222 C 350.895 222 350 221.105 350 220 C 350 218.895 350.895 218 352 218 C 353.105 218 354 218.895 354 220 Z M 354 228 C 354 229.105 353.105 230 352 230 C 350.895 230 350 229.105 350 228 C 350 226.895 350.895 226 352 226 C 353.105 226 354 226.895 354 228 Z" style="paint-order: fill; filter: none; fill: url(#gradient-4);" transform="matrix(-1, 0, 0, -1, 734, 424)"/>
    <g transform="matrix(0.833333, 0, 0, 0.75, 12.953341, -13.449999)">
        <path d="M 23.456 84.6 L 77.456 84.6 C 79.113 84.6 80.456 85.943 80.456 87.6 L 80.456 131.6 C 80.456 133.257 79.113 134.6 77.456 134.6 L 23.456 134.6 C 21.799 134.6 20.456 133.257 20.456 131.6 L 20.456 87.6 C 20.456 85.943 21.799 84.6 23.456 84.6 Z" style="fill: url(#gradient-0);"/>
        <path d="M 56.261 90.429 L 53.159 100.03 L 59.007 103.231 L 59.007 116.253 L 53.07 119.43 L 55.995 132.088 M 55.995 132.088 C 55.995 132.088 65.965 132.08 69.643 132.1 C 77.22 130.369 77.377 122.603 77.377 122.603 M 77.377 122.603 L 80.419 122.627 M 56.261 87.1 L 68.757 87.1 C 77.354 88.424 77.354 96.829 77.354 96.829 M 77.354 96.829 L 80.366 96.829 M 59.068 103.463 L 62.287 100.046 L 80.366 100.065 M 59.097 109.775 L 77.265 109.803 M 80.456 103.431 L 77.265 103.44 L 77.293 116.116 L 80.456 116.116 M 59.007 116.116 L 62.198 119.446 L 80.366 119.446 M 20.517 122.529 L 23.292 122.518 M 23.292 122.518 C 23.292 122.518 23.204 130.071 30.566 132.023 C 32.332 132.077 44.131 132.05 44.131 132.05 M 44.131 132.05 L 47.044 119.19 L 41.283 116.116 L 41.312 103.273 L 47.201 100.286 L 44.386 87.131 M 44.386 87.131 C 44.386 87.131 41.328 87.135 32.864 87.139 C 24.444 87.186 23.292 96.076 23.381 96.922 C 22.318 96.958 20.514 96.953 20.514 96.953 M 20.549 99.987 L 38.282 99.96 L 41.372 103.35 M 20.456 103.315 L 23.352 103.315 L 23.381 116.202 L 20.456 116.202 M 20.477 119.333 L 38.27 119.379 L 41.283 116.116 M 23.292 109.701 L 41.283 109.708" fill="none" stroke-miterlimit="2.613" style="stroke-opacity: 0.4;" stroke="#000"/>
    </g>
</svg>
